<?xml version="1.0" encoding="utf-8"?>
<!-- Generator: Adobe Illustrator 22.1.0, SVG Export Plug-In . SVG Version: 6.00 Build 0)  -->
<svg version="1.1" id="Layer_1" xmlns="http://www.w3.org/2000/svg" xmlns:xlink="http://www.w3.org/1999/xlink" x="0px" y="0px"
	 viewBox="0 0 100 125" style="enable-background:new 0 0 100 125;" xml:space="preserve">
<style type="text/css">
	.st0{display:none;}
	.st1{display:inline;fill:none;stroke:#000000;stroke-width:2.000000e-02;stroke-miterlimit:10;}
	.st2{display:inline;}
	.st3{display:inline;fill:none;stroke:#000000;stroke-width:5;stroke-linecap:round;stroke-linejoin:round;stroke-miterlimit:10;}
	.st4{display:inline;stroke:#FFFFFF;stroke-width:5;stroke-linecap:round;stroke-linejoin:round;stroke-miterlimit:10;}
	.st5{display:inline;fill:none;stroke:#FFFFFF;stroke-width:5;stroke-linecap:round;stroke-linejoin:round;stroke-miterlimit:10;}
	.st6{stroke:#FFFFFF;stroke-width:5;stroke-linecap:round;stroke-linejoin:round;stroke-miterlimit:10;}
	.st7{fill:none;stroke:#FFFFFF;stroke-width:5;stroke-linecap:round;stroke-linejoin:round;stroke-miterlimit:10;}
	.st8{fill:#FFFFFF;}
</style>
<g class="st0">
	<rect x="5" y="5" class="st1" width="90" height="90"/>
</g>
<g class="st0">
	<g class="st2">
		<path d="M73,11H27L5,50l22,39h46l22-39L73,11z M71.2,80C67.7,71.8,59.5,66,50,66c-9.5,0-17.7,5.8-21.2,14L13.6,53H29
			c1.7,0,3-1.3,3-3s-1.3-3-3-3H13.6l15.2-26.9l7.6,13.4c0.6,1,1.6,1.5,2.6,1.5c0.5,0,1-0.1,1.5-0.4c1.4-0.8,1.9-2.7,1.1-4.1L33.9,17
			h32.2l-7.7,13.5c-0.8,1.4-0.3,3.3,1.1,4.1c0.5,0.3,1,0.4,1.5,0.4c1,0,2.1-0.5,2.6-1.5l7.6-13.4L86.4,47H71c-1.7,0-3,1.3-3,3
			s1.3,3,3,3h15.4L71.2,80z"/>
		<path d="M50,37c-7.2,0-13,5.8-13,13c0,7.2,5.8,13,13,13s13-5.8,13-13C63,42.8,57.2,37,50,37z"/>
	</g>
</g>
<g class="st0">
	<path class="st2" d="M50,20C19.5,20,5,50,5,50c0,0,0,0,0,0c0,0,14,30,45,30c29,0,45-30,45-30S81,20,50,20z M40,36h20
		c1.1,0,2,0.9,2,2s-0.9,2-2,2H40c-1.1,0-2-0.9-2-2S38.9,36,40,36z M40,45h20c1.1,0,2,0.9,2,2s-0.9,2-2,2H40c-1.1,0-2-0.9-2-2
		S38.9,45,40,45z M40,54h10c1.1,0,2,0.9,2,2s-0.9,2-2,2H40c-1.1,0-2-0.9-2-2S38.9,54,40,54z M50,74c-11,0-20.9-4.6-29.4-13.1
		c-4.1-4.1-7-8.3-8.6-10.9c2.8-4.5,9.5-14,20.2-19.6c-3.2,4-5.2,9-5.2,14.5c0,12.7,10.3,23,23,23c12.7,0,23-10.3,23-23
		c0-5.5-2-10.6-5.2-14.6c4.1,2.1,8,5.1,11.6,8.7c4,4,7,8.3,8.6,10.9C83.5,56.8,69.9,74,50,74z"/>
</g>
<g class="st0">
	<path class="st2" d="M50,20C19.5,20,5,50,5,50c0,0,0,0,0,0c0,0,14,30,45,30c29,0,45-30,45-30S81,20,50,20z M67,45c0,1.1-0.9,2-2,2
		H54v-4h11C66.1,43,67,43.9,67,45z M48,49h4v11c0,1.1-0.9,2-2,2s-2-0.9-2-2V49z M50,28c1.1,0,2,0.9,2,2v11h-4V30
		C48,28.9,48.9,28,50,28z M35,43h11v4H35c-1.1,0-2-0.9-2-2S33.9,43,35,43z M50,74c-11,0-20.9-4.6-29.4-13.1c-4.1-4.1-7-8.3-8.6-10.9
		c2.8-4.5,9.5-14,20.2-19.6c-3.2,4-5.2,9-5.2,14.5c0,12.7,10.3,23,23,23c12.7,0,23-10.3,23-23c0-5.5-2-10.6-5.2-14.6
		c4.1,2.1,8,5.1,11.6,8.7c4,4,7,8.3,8.6,10.9C83.5,56.8,69.9,74,50,74z"/>
</g>
<g class="st0">
	<path class="st2" d="M18,23h20c1.1,0,2,0.9,2,2c0,1.1-0.9,2-2,2H18c-1.1,0-2-0.9-2-2C16,23.9,16.9,23,18,23z"/>
	<path class="st2" d="M18.5,33h10c1.1,0,2,0.9,2,2c0,1.1-0.9,2-2,2h-10c-1.1,0-2-0.9-2-2C16.5,33.9,17.4,33,18.5,33z"/>
	<path class="st2" d="M51,29V17h41c1.7,0,3-1.3,3-3s-1.3-3-3-3c0,0-83.8,0-84,0c-1.7,0-3,1.3-3,3v32c0,1.7,1.3,3,3,3h3.6
		C7.2,54.5,5,59,5,59c0,0,0,0,0,0c0,0,14,30,45,30c29,0,45-30,45-30S81.3,29.7,51,29z M11,43V17h34v18c0,4.7-4,8-9,8
		C35.9,43,11,43,11,43z M50,83c-11,0-20.9-4.6-29.4-13.1c-4.1-4.1-7-8.3-8.6-10.9c1.5-2.4,4.1-6.2,7.8-10H53c1.1,0,2,0.9,2,2
		c0,1.1-0.9,2-2,2H27c0,0.3,0,0.7,0,1c0,1.7,0.2,3.4,0.6,5H43c1.1,0,2,0.9,2,2c0,1.1-0.9,2-2,2H28.8c3.5,8.2,11.7,14,21.2,14
		c12.7,0,23-10.3,23-23c0-5.5-2-10.6-5.2-14.6c4.1,2.1,8,5.1,11.6,8.7c4,4,7,8.3,8.6,10.9C83.5,65.8,69.9,83,50,83z"/>
</g>
<g class="st0">
	<path class="st2" d="M63.8,52H68c8.7,0,16-7.1,16-15.9c0-8-6-14.6-13.7-15.7C67.7,11.6,59.5,5,50,5c-9.5,0-17.7,6.6-20.3,15.4
		C22,21.5,16,28.1,16,36.1C16,44.9,23.3,52,32,52h4.3L20.5,75.9C19.3,77.7,18,82,20.2,86c3.4,6,12.8,9,28.9,9
		c17.2,0,27.2-3,30.7-9.2c2.2-4,0.9-8.1-0.3-10L63.8,52z M22,36.1c0-5.5,4.4-10.1,9.9-10.1c0.5,0,1.7,0,3.1,0c0.1-8.3,6.7-15,15-15
		c8.3,0,14.9,6.7,15,15c1.4,0,2.6,0,3.1,0c5.5,0,9.9,4.6,9.9,10.1S73.5,46,68,46c-3.1,0-32.9,0-36,0C26.5,46,22,41.6,22,36.1z
		 M43.5,52h13.1l13,19.6c-4.9-1.7-11.7-2.5-20.4-2.5c-7.7,0-13.9,0.7-18.5,2.2L43.5,52z M49.1,89c-18.3,0-22.6-4.1-23.6-5.8
		c-1.1-1.9-0.1-3.9,0.1-4.2l0.5-0.7c1.9-2.3,7.4-5.3,23.1-5.3c18.9,0,24,4,25.3,6.4c0.2,0.4,0.4,0.8,0.5,1.2
		c0.1,0.7,0.1,1.5-0.4,2.4C73.5,84.7,68.9,89,49.1,89z"/>
</g>
<g class="st0">
	<g class="st2">
		<path d="M88.8,39.4l-35.2-31C52.5,7.4,51.2,7,49.8,7c-1.3,0-2.7,0.4-3.8,1.3l-34.8,31C9.8,40.5,9,42.2,9,44v39c0,3.3,2.7,6,6,6h22
			v-6H15V44l34.8-31L85,44v39H53V71.4c2.9-1.2,5-4.1,5-7.4c0-4.4-3.6-8-8-8s-8,3.6-8,8c0,3.4,2,6.2,5,7.4V73v10v6h38
			c3.3,0,6-2.7,6-6V44C91,42.2,90.2,40.5,88.8,39.4z"/>
		<path d="M50,46.1c-6.1,0-11.8,3.1-15,8.3c-0.8,1.3-0.4,3,0.9,3.9c0.5,0.3,1,0.4,1.5,0.4c0.9,0,1.8-0.5,2.4-1.3
			c2.3-3.5,6.1-5.7,10.3-5.7c4.2,0,8,2.1,10.3,5.6c0.8,1.3,2.6,1.7,3.9,0.9c1.3-0.8,1.7-2.6,0.9-3.9C61.8,49.2,56.1,46.1,50,46.1z"
			/>
		<path d="M26.4,49c-0.9,1.4-0.5,3.2,0.9,4.1c0.5,0.3,1,0.5,1.6,0.5c1,0,1.9-0.5,2.5-1.4c4.1-6.4,11-10.3,18.7-10.3
			c7.6,0,14.5,3.8,18.6,10.2c0.9,1.4,2.7,1.8,4.1,0.9c1.4-0.9,1.8-2.7,0.9-4.1C68.5,40.8,59.6,36,50,36C40.4,36,31.6,40.9,26.4,49z"
			/>
	</g>
</g>
<g class="st0">
	<g class="st2">
		<path d="M50,18.1c-6.1,0-11.8,3.1-15,8.3c-0.8,1.3-0.4,3,0.9,3.9c0.5,0.3,1,0.4,1.5,0.4c0.9,0,1.8-0.5,2.4-1.3
			c2.3-3.5,6.1-5.7,10.3-5.7c4.2,0,8,2.1,10.3,5.6c0.8,1.3,2.6,1.7,3.9,0.9c1.3-0.8,1.7-2.6,0.9-3.9C61.7,21.2,56.1,18.1,50,18.1z"
			/>
		<path d="M27.3,25.1c0.5,0.3,1,0.5,1.6,0.5c1,0,1.9-0.5,2.5-1.4c4.1-6.4,11-10.3,18.7-10.3c7.6,0,14.5,3.8,18.6,10.2
			c0.9,1.4,2.7,1.8,4.1,0.9c1.4-0.9,1.8-2.7,0.9-4.1C68.4,12.8,59.6,8,50,8c-9.6,0-18.5,4.9-23.6,13C25.5,22.4,25.9,24.2,27.3,25.1z
			"/>
		<path d="M62,82h-8V64h36c0-5-4-9-9-9H54v-8c0-3,4-5,4-11.1c0-4.4-3.6-8-8-8c-4.4,0-8,3.6-8,8C42,41,46,44,46,47v8H19c-5,0-9,4-9,9
			h36v18h-8c-2.4,0-5,2.3-5,5l17,5l17-5C67,84.3,64.4,82,62,82z"/>
	</g>
</g>
<g class="st0">
	<g class="st2">
		<path d="M18,91c0,0,22-14,32-1c10-13,32,1,32,1v3H18V91z"/>
	</g>
	<g class="st2">
		<path d="M59,54c0,5-4,9-9,9c-5,0-9-4-9-9c0-5,4-9,9-9C55,45,59,49,59,54z"/>
		<path d="M86.5,49.1c0.3-2,0.5-4,0.5-6.1s-0.2-4.1-0.5-6.1l-6.6-1.5c-0.7-2.9-1.9-5.7-3.4-8.2l3.6-5.6c-2.4-3.4-5.4-6.3-8.7-8.7
			l-5.6,3.6c-2.5-1.5-5.3-2.7-8.2-3.4l-1.5-6.5C54.1,6.2,52.1,6,50,6s-4.1,0.2-6.1,0.5l-1.5,6.5c-2.9,0.7-5.7,1.9-8.2,3.4l-5.6-3.6
			c-3.4,2.4-6.3,5.4-8.7,8.7l3.6,5.6c-1.5,2.5-2.7,5.3-3.4,8.2l-6.5,1.5c-0.3,2-0.5,4-0.5,6.1s0.2,4.1,0.5,6.1l6.5,1.5
			c0.7,2.9,1.9,5.7,3.4,8.2l-3.6,5.6c2.4,3.4,5.4,6.3,8.7,8.7l5.6-3.6c2.5,1.5,5.3,2.7,8.2,3.4l1.5,6.6c2,0.3,4.1,0.5,6.1,0.5
			c2.1,0,4.1-0.2,6.1-0.5l1.5-6.6c2.9-0.7,5.7-1.9,8.2-3.4l5.6,3.6c3.4-2.4,6.3-5.4,8.7-8.7l-3.6-5.6c1.5-2.5,2.7-5.3,3.4-8.2
			L86.5,49.1z M50,66c-12.7,0-23-10.2-23-23c0-12.7,10.3-23,23-23c12.7,0,23,10.3,23,23C73,55.8,62.7,66,50,66z"/>
	</g>
</g>
<g class="st0">
	<polygon class="st3" points="48,50 8,27.5 53,5 92,27.5 	"/>
	<polygon class="st3" points="48,95 8,72.5 53,50 92,72.5 	"/>
	<polygon class="st3" points="48,95 8,72.5 53,50 92,72.5 	"/>
	<line class="st3" x1="92" y1="72.5" x2="48" y2="95"/>
	<line class="st3" x1="8" y1="28" x2="8" y2="72"/>
	<line class="st3" x1="92" y1="72" x2="92" y2="28"/>
	<line class="st3" x1="48" y1="50" x2="48" y2="94"/>
	<line class="st3" x1="53" y1="5" x2="53" y2="50"/>
</g>
<g class="st0">
	<polygon class="st3" points="48,50 8,27.5 53,5 92,27.5 	"/>
	<polygon class="st3" points="48,95 8,72.5 53,50 92,72.5 	"/>
	<polygon class="st4" points="48,95 8,72.5 53,50 92,72.5 	"/>
	<line class="st5" x1="92" y1="72.5" x2="48" y2="95"/>
	<line class="st3" x1="8" y1="28" x2="8" y2="72"/>
	<line class="st3" x1="92" y1="72" x2="92" y2="28"/>
	<line class="st3" x1="48" y1="50" x2="48" y2="94"/>
	<line class="st3" x1="53" y1="5" x2="53" y2="50"/>
	<polyline class="st3" points="92,64.5 48,87 8,64.5 	"/>
	<path class="st3" d="M53,34"/>
	<polyline class="st3" points="92,56.5 48,79 8,56.5 	"/>
	<polygon class="st2" points="48,73 8,50.5 53,28 92,50.5 	"/>
	<g class="st2">
		<polyline class="st6" points="59,44 48,50 38,44 		"/>
		<line class="st7" x1="48" y1="50" x2="48" y2="61"/>
	</g>
</g>
<g class="st0">
	<polygon class="st3" points="48,50 8,27.5 53,5 92,27.5 	"/>
	<line class="st3" x1="46" y1="9.5" x2="85" y2="32"/>
	<polygon class="st3" points="48,95 8,72.5 53,50 92,72.5 	"/>
	<line class="st3" x1="8" y1="28" x2="8" y2="72"/>
	<line class="st3" x1="92" y1="72" x2="92" y2="28"/>
	<line class="st3" x1="48" y1="50" x2="48" y2="94"/>
	<line class="st3" x1="53" y1="5" x2="53" y2="50"/>
	<line class="st3" x1="85" y1="76" x2="85" y2="32"/>
	<line class="st3" x1="46" y1="9" x2="46" y2="54"/>
	<line class="st3" x1="46" y1="9.5" x2="85" y2="32"/>
	<line class="st3" x1="83" y1="76" x2="83" y2="32"/>
	<line class="st3" x1="46" y1="9" x2="46" y2="54"/>
	<line class="st3" x1="37" y1="13.5" x2="76" y2="36"/>
	<line class="st3" x1="75" y1="81" x2="75" y2="37"/>
	<line class="st3" x1="37" y1="13" x2="37" y2="58"/>
	<line class="st3" x1="26" y1="19.5" x2="65" y2="42"/>
	<line class="st3" x1="65" y1="86" x2="65" y2="42"/>
	<line class="st3" x1="26" y1="19" x2="26" y2="64"/>
	<path class="st3" d="M53,34"/>
	<g class="st2">
		<polyline class="st6" points="59,44 48,50 38,44 		"/>
		<line class="st7" x1="48" y1="50" x2="48" y2="61"/>
	</g>
</g>
<path class="st8" d="M50,5L11,27v25l0,0v0l0,0v21l39,22l39-22V27L50,5z M52,13l29,16.4l-15.7,9.3L52,31.2V13z M50,47.7l8.7-5.2
	c1-0.6,2.2-0.2,2.7,0.7c0.6,1,0.2,2.2-0.7,2.7L52,51.2v10.1c0,1.1-0.9,2-2,2c-1.1,0-2-0.9-2-2V51.2L39.2,46c-1-0.6-1.3-1.8-0.7-2.7
	c0.6-1,1.8-1.3,2.7-0.7L50,47.7z M48,13v18.1l-13.3,7.5L19,29.4L48,13z M17,32.9l13.6,8L17,48.6V32.9z M83,69.5L50,88L17,69.5v-3.6
	L50,84l33-18.7V69.5z M83,59.7L50,78L17,59.7v-4.3L50,74l33-18.6V59.7z M83,48.6l-13.7-7.7L83,32.9V48.6z"/>
</svg>
