<?xml version="1.0" encoding="utf-8"?>
<!-- Generator: Adobe Illustrator 22.1.0, SVG Export Plug-In . SVG Version: 6.00 Build 0)  -->
<svg version="1.1" id="Layer_1" xmlns="http://www.w3.org/2000/svg" xmlns:xlink="http://www.w3.org/1999/xlink" x="0px" y="0px"
	 viewBox="0 0 64 55.8" style="enable-background:new 0 0 64 55.8;" xml:space="preserve">
<style type="text/css">
	.st0{fill:#FFFFFF;}
</style>
<title>3d-3dprinting-print-printing</title>
<path class="st0" d="M31,4h2v5h-2V4z M27,17v-6h10v6H27z M30,21v-2h4v2H30z"/>
<path class="st0" d="M42,21v2h8c0.6,0,1-0.4,1-1v-8c0-0.6-0.4-1-1-1h-9v2h8v6H42z"/>
<path class="st0" d="M23,6V4h-8c-0.6,0-1,0.4-1,1v9c0,0.6,0.4,1,1,1h8v-2h-7V6H23z"/>
<polygon class="st0" points="31,40.7 21,36.5 21,47.3 31,51.5 "/>
<polygon class="st0" points="33,51.5 43,47.3 43,36.5 33,40.7 "/>
<polygon class="st0" points="41.4,35 32,31.1 22.6,35 32,38.9 "/>
<rect x="31" y="23" class="st0" width="2" height="2"/>
</svg>
